<?xml version="1.0" ?>
<!DOCTYPE svg  PUBLIC '-//W3C//DTD SVG 1.1//EN'  'http://www.w3.org/Graphics/SVG/1.1/DTD/svg11.dtd'>
<!-- Uploaded to: SVG Repo, www.svgrepo.com, Generator: SVG Repo Mixer Tools -->
<svg fill="#000000" width="800px" height="800px" viewBox="0 0 32 32" style="fill-rule:evenodd;clip-rule:evenodd;stroke-linejoin:round;stroke-miterlimit:2;" version="1.1" xml:space="preserve" xmlns="http://www.w3.org/2000/svg" xmlns:serif="http://www.serif.com/" xmlns:xlink="http://www.w3.org/1999/xlink">
<g transform="matrix(1,0,0,1,-384,-432)">
<g transform="matrix(1,0,0,1,-2,0)">
<path d="M396.811,435.757C396.922,435.312 397.322,435 397.781,435C399.547,435 403.882,435 406.3,435C406.655,435 406.983,435.187 407.162,435.493C407.342,435.798 407.347,436.176 407.175,436.486C406.248,438.154 404.752,440.846 403.825,442.514C403.653,442.824 403.658,443.202 403.838,443.507C404.017,443.812 404.345,444 404.699,444C405.944,444 407.639,444 408.957,444C409.339,444 409.687,444.217 409.855,444.56C410.023,444.903 409.981,445.312 409.747,445.613C407.227,448.858 401.5,456.232 398.114,460.592C397.828,460.959 397.327,461.081 396.905,460.886C396.482,460.691 396.25,460.231 396.345,459.775C397.139,455.954 398.257,450.575 398.75,448.203C398.811,447.909 398.736,447.602 398.547,447.369C398.357,447.135 398.072,447 397.771,447C397.014,447 396.047,447 395.281,447C394.973,447 394.682,446.858 394.493,446.615C394.303,446.373 394.236,446.056 394.311,445.757C394.931,443.276 396.307,437.772 396.811,435.757Z" style="fill:rgb(144,224,239);"/>
</g>
<g transform="matrix(1,0,0,1,-2,0)">
<path d="M397.771,448C397.278,450.372 396.16,455.751 395.366,459.571C395.176,460.483 395.64,461.404 396.485,461.794C397.33,462.184 398.333,461.94 398.903,461.205C402.29,456.845 408.017,449.471 410.537,446.227C411.005,445.624 411.089,444.807 410.753,444.121C410.418,443.435 409.721,443 408.957,443L404.7,443L408.049,436.971C408.393,436.352 408.384,435.597 408.024,434.986C407.665,434.375 407.009,434 406.3,434L397.781,434C396.863,434 396.063,434.625 395.84,435.515L393.34,445.515C393.191,446.112 393.325,446.745 393.704,447.231C394.083,447.716 394.665,448 395.281,448L397.771,448ZM397.781,436C397.781,436 406.3,436 406.3,436C406.3,436 402.951,442.029 402.951,442.029C402.607,442.648 402.616,443.403 402.976,444.014C403.335,444.625 403.991,445 404.699,445L408.957,445L397.324,459.978L399.729,448.407C399.851,447.818 399.702,447.205 399.322,446.738C398.942,446.271 398.373,446 397.771,446L395.281,446L397.781,436Z" style="fill:rgb(25,144,167);"/>
</g>
</g>
</svg>